<mxfile host="app.diagrams.net" agent="Mozilla/5.0 (Windows NT 10.0; Win64; x64) AppleWebKit/537.36 (KHTML, like Gecko) Chrome/131.0.0.0 Safari/537.36" version="26.0.5">
  <diagram name="Page-1" id="LSEg3EpEl5tJXPGkTr6A">
    <mxGraphModel dx="1395" dy="1784" grid="1" gridSize="10" guides="1" tooltips="1" connect="1" arrows="1" fold="1" page="1" pageScale="1" pageWidth="827" pageHeight="1169" math="0" shadow="0">
      <root>
        <mxCell id="0" />
        <mxCell id="1" parent="0" />
        <mxCell id="KEBvnTViSRa0IrhKISGH-2" value="Professor" style="rounded=0;whiteSpace=wrap;html=1;fontSize=18;" parent="1" vertex="1">
          <mxGeometry x="226" y="80" width="120" height="60" as="geometry" />
        </mxCell>
        <mxCell id="KEBvnTViSRa0IrhKISGH-3" value="User_" style="rounded=0;whiteSpace=wrap;html=1;fontSize=18;" parent="1" vertex="1">
          <mxGeometry x="226" y="-100" width="120" height="60" as="geometry" />
        </mxCell>
        <mxCell id="KEBvnTViSRa0IrhKISGH-5" value="Game" style="rounded=0;whiteSpace=wrap;html=1;fontSize=18;" parent="1" vertex="1">
          <mxGeometry x="750" y="-100" width="120" height="60" as="geometry" />
        </mxCell>
        <mxCell id="KEBvnTViSRa0IrhKISGH-14" value="class" style="ellipse;whiteSpace=wrap;html=1;" parent="1" vertex="1">
          <mxGeometry x="376" y="-188.5" width="50" height="45" as="geometry" />
        </mxCell>
        <mxCell id="KEBvnTViSRa0IrhKISGH-16" value="" style="endArrow=none;html=1;rounded=0;exitX=1;exitY=0.5;exitDx=0;exitDy=0;entryX=0;entryY=0.5;entryDx=0;entryDy=0;" parent="1" source="KEBvnTViSRa0IrhKISGH-3" target="1a8eKbtsdFFPZXMQkyjr-9" edge="1">
          <mxGeometry width="50" height="50" relative="1" as="geometry">
            <mxPoint x="426" y="170" as="sourcePoint" />
            <mxPoint x="486" y="-70" as="targetPoint" />
          </mxGeometry>
        </mxCell>
        <mxCell id="KEBvnTViSRa0IrhKISGH-17" value="" style="endArrow=none;html=1;rounded=0;exitX=-0.002;exitY=0.452;exitDx=0;exitDy=0;entryX=0.961;entryY=0.461;entryDx=0;entryDy=0;entryPerimeter=0;exitPerimeter=0;" parent="1" source="KEBvnTViSRa0IrhKISGH-5" target="1a8eKbtsdFFPZXMQkyjr-9" edge="1">
          <mxGeometry width="50" height="50" relative="1" as="geometry">
            <mxPoint x="510" y="129" as="sourcePoint" />
            <mxPoint x="636.8800000000001" y="-73.17999999999984" as="targetPoint" />
          </mxGeometry>
        </mxCell>
        <mxCell id="KEBvnTViSRa0IrhKISGH-19" value="" style="rhombus;whiteSpace=wrap;html=1;" parent="1" vertex="1">
          <mxGeometry x="770" y="30" width="80" height="80" as="geometry" />
        </mxCell>
        <mxCell id="KEBvnTViSRa0IrhKISGH-20" value="" style="endArrow=none;html=1;rounded=0;entryX=0.482;entryY=1.006;entryDx=0;entryDy=0;entryPerimeter=0;exitX=0.474;exitY=0.027;exitDx=0;exitDy=0;exitPerimeter=0;" parent="1" source="KEBvnTViSRa0IrhKISGH-19" target="KEBvnTViSRa0IrhKISGH-5" edge="1">
          <mxGeometry width="50" height="50" relative="1" as="geometry">
            <mxPoint x="808" y="30" as="sourcePoint" />
            <mxPoint x="740" y="250" as="targetPoint" />
          </mxGeometry>
        </mxCell>
        <mxCell id="KEBvnTViSRa0IrhKISGH-21" value="" style="endArrow=none;html=1;rounded=0;exitX=0.483;exitY=-0.001;exitDx=0;exitDy=0;exitPerimeter=0;" parent="1" source="KEBvnTViSRa0IrhKISGH-81" edge="1">
          <mxGeometry width="50" height="50" relative="1" as="geometry">
            <mxPoint x="807.7199999999998" y="180.29999999999973" as="sourcePoint" />
            <mxPoint x="808" y="120" as="targetPoint" />
          </mxGeometry>
        </mxCell>
        <mxCell id="KEBvnTViSRa0IrhKISGH-25" value="&lt;u&gt;user_id&lt;/u&gt;" style="ellipse;whiteSpace=wrap;html=1;" parent="1" vertex="1">
          <mxGeometry x="150" y="-112" width="56" height="42" as="geometry" />
        </mxCell>
        <mxCell id="KEBvnTViSRa0IrhKISGH-26" value="timestamp_user" style="ellipse;whiteSpace=wrap;html=1;" parent="1" vertex="1">
          <mxGeometry x="370" y="-138.12" width="110" height="38.12" as="geometry" />
        </mxCell>
        <mxCell id="KEBvnTViSRa0IrhKISGH-27" value="" style="triangle;whiteSpace=wrap;html=1;rotation=-90;" parent="1" vertex="1">
          <mxGeometry x="264" y="-13" width="44" height="50" as="geometry" />
        </mxCell>
        <mxCell id="KEBvnTViSRa0IrhKISGH-29" value="" style="endArrow=none;html=1;rounded=0;entryX=0.5;entryY=1;entryDx=0;entryDy=0;exitX=1;exitY=0.5;exitDx=0;exitDy=0;" parent="1" source="KEBvnTViSRa0IrhKISGH-27" target="KEBvnTViSRa0IrhKISGH-3" edge="1">
          <mxGeometry width="50" height="50" relative="1" as="geometry">
            <mxPoint x="476" y="290" as="sourcePoint" />
            <mxPoint x="526" y="240" as="targetPoint" />
          </mxGeometry>
        </mxCell>
        <mxCell id="KEBvnTViSRa0IrhKISGH-30" value="" style="endArrow=none;html=1;rounded=0;entryX=0.5;entryY=0;entryDx=0;entryDy=0;exitX=0;exitY=0.5;exitDx=0;exitDy=0;" parent="1" source="KEBvnTViSRa0IrhKISGH-27" target="KEBvnTViSRa0IrhKISGH-2" edge="1">
          <mxGeometry width="50" height="50" relative="1" as="geometry">
            <mxPoint x="296" as="sourcePoint" />
            <mxPoint x="296" y="-30" as="targetPoint" />
          </mxGeometry>
        </mxCell>
        <mxCell id="KEBvnTViSRa0IrhKISGH-31" value="academic_year" style="ellipse;whiteSpace=wrap;html=1;" parent="1" vertex="1">
          <mxGeometry x="282" y="-200" width="92" height="43.75" as="geometry" />
        </mxCell>
        <mxCell id="KEBvnTViSRa0IrhKISGH-32" value="" style="endArrow=none;html=1;rounded=0;exitX=0.878;exitY=0.003;exitDx=0;exitDy=0;entryX=0.274;entryY=0.934;entryDx=0;entryDy=0;entryPerimeter=0;exitPerimeter=0;" parent="1" source="KEBvnTViSRa0IrhKISGH-2" target="KEBvnTViSRa0IrhKISGH-34" edge="1">
          <mxGeometry width="50" height="50" relative="1" as="geometry">
            <mxPoint x="686" y="140" as="sourcePoint" />
            <mxPoint x="396" y="60" as="targetPoint" />
          </mxGeometry>
        </mxCell>
        <mxCell id="KEBvnTViSRa0IrhKISGH-34" value="&lt;font style=&quot;font-size: 10px;&quot;&gt;permission_level&lt;/font&gt;" style="ellipse;whiteSpace=wrap;html=1;" parent="1" vertex="1">
          <mxGeometry x="336" y="10" width="90" height="40" as="geometry" />
        </mxCell>
        <mxCell id="KEBvnTViSRa0IrhKISGH-41" value="&lt;u&gt;game_id&lt;/u&gt;" style="ellipse;whiteSpace=wrap;html=1;" parent="1" vertex="1">
          <mxGeometry x="640" y="-118" width="60" height="37.13" as="geometry" />
        </mxCell>
        <mxCell id="KEBvnTViSRa0IrhKISGH-46" value="round_number" style="ellipse;whiteSpace=wrap;html=1;" parent="1" vertex="1">
          <mxGeometry x="612" y="211.5" width="90" height="28.5" as="geometry" />
        </mxCell>
        <mxCell id="KEBvnTViSRa0IrhKISGH-47" value="game_name" style="ellipse;whiteSpace=wrap;html=1;" parent="1" vertex="1">
          <mxGeometry x="702" y="-215" width="80" height="30" as="geometry" />
        </mxCell>
        <mxCell id="KEBvnTViSRa0IrhKISGH-48" value="score_team2_role2" style="ellipse;whiteSpace=wrap;html=1;" parent="1" vertex="1">
          <mxGeometry x="890" y="292.7" width="120" height="34" as="geometry" />
        </mxCell>
        <mxCell id="KEBvnTViSRa0IrhKISGH-49" value="score_team1_role1" style="ellipse;whiteSpace=wrap;html=1;" parent="1" vertex="1">
          <mxGeometry x="826" y="326.69999999999993" width="113" height="26.6" as="geometry" />
        </mxCell>
        <mxCell id="KEBvnTViSRa0IrhKISGH-50" value="group1_class" style="ellipse;whiteSpace=wrap;html=1;" parent="1" vertex="1">
          <mxGeometry x="620" y="244" width="80" height="36" as="geometry" />
        </mxCell>
        <mxCell id="KEBvnTViSRa0IrhKISGH-51" value="group1_id" style="ellipse;whiteSpace=wrap;html=1;" parent="1" vertex="1">
          <mxGeometry x="680" y="272.2" width="70" height="37.8" as="geometry" />
        </mxCell>
        <mxCell id="KEBvnTViSRa0IrhKISGH-53" value="number_of_rounds" style="ellipse;whiteSpace=wrap;html=1;" parent="1" vertex="1">
          <mxGeometry x="739" y="-260" width="120" height="32.5" as="geometry" />
        </mxCell>
        <mxCell id="KEBvnTViSRa0IrhKISGH-55" value="email" style="ellipse;whiteSpace=wrap;html=1;" parent="1" vertex="1">
          <mxGeometry x="170" y="-160" width="46" height="42" as="geometry" />
        </mxCell>
        <mxCell id="KEBvnTViSRa0IrhKISGH-56" value="password" style="ellipse;whiteSpace=wrap;html=1;" parent="1" vertex="1">
          <mxGeometry x="170" y="-199.88" width="70" height="35.88" as="geometry" />
        </mxCell>
        <mxCell id="KEBvnTViSRa0IrhKISGH-57" value="" style="endArrow=none;html=1;rounded=0;entryX=0.963;entryY=0.539;entryDx=0;entryDy=0;entryPerimeter=0;exitX=-0.003;exitY=0.553;exitDx=0;exitDy=0;exitPerimeter=0;" parent="1" source="KEBvnTViSRa0IrhKISGH-5" target="1a8eKbtsdFFPZXMQkyjr-9" edge="1">
          <mxGeometry width="50" height="50" relative="1" as="geometry">
            <mxPoint x="750" y="-60" as="sourcePoint" />
            <mxPoint x="637.7800000000002" y="-67.53999999999996" as="targetPoint" />
          </mxGeometry>
        </mxCell>
        <mxCell id="KEBvnTViSRa0IrhKISGH-59" value="" style="endArrow=none;html=1;rounded=0;exitX=0.524;exitY=0.001;exitDx=0;exitDy=0;exitPerimeter=0;" parent="1" edge="1">
          <mxGeometry width="50" height="50" relative="1" as="geometry">
            <mxPoint x="811.8800000000001" y="198.06000000000017" as="sourcePoint" />
            <mxPoint x="812" y="120" as="targetPoint" />
          </mxGeometry>
        </mxCell>
        <mxCell id="KEBvnTViSRa0IrhKISGH-60" value="" style="endArrow=none;html=1;rounded=0;entryX=0.527;entryY=1.01;entryDx=0;entryDy=0;entryPerimeter=0;exitX=0.539;exitY=0.035;exitDx=0;exitDy=0;exitPerimeter=0;" parent="1" source="KEBvnTViSRa0IrhKISGH-19" target="KEBvnTViSRa0IrhKISGH-5" edge="1">
          <mxGeometry width="50" height="50" relative="1" as="geometry">
            <mxPoint x="813" y="30" as="sourcePoint" />
            <mxPoint x="830" y="110" as="targetPoint" />
          </mxGeometry>
        </mxCell>
        <mxCell id="KEBvnTViSRa0IrhKISGH-66" value="" style="endArrow=none;dashed=1;html=1;rounded=0;startSize=4;endSize=0;jumpSize=4;" parent="1" edge="1">
          <mxGeometry width="50" height="50" relative="1" as="geometry">
            <mxPoint x="743.75" y="299.2" as="sourcePoint" />
            <mxPoint x="686.25" y="299.2" as="targetPoint" />
          </mxGeometry>
        </mxCell>
        <mxCell id="KEBvnTViSRa0IrhKISGH-67" value="timestamp_game_creation" style="ellipse;whiteSpace=wrap;html=1;" parent="1" vertex="1">
          <mxGeometry x="939" y="-112" width="171" height="28.12" as="geometry" />
        </mxCell>
        <mxCell id="KEBvnTViSRa0IrhKISGH-69" value="" style="endArrow=none;html=1;rounded=0;entryX=-0.003;entryY=0.392;entryDx=0;entryDy=0;exitX=1;exitY=0.5;exitDx=0;exitDy=0;entryPerimeter=0;" parent="1" source="KEBvnTViSRa0IrhKISGH-46" edge="1" target="KEBvnTViSRa0IrhKISGH-81">
          <mxGeometry width="50" height="50" relative="1" as="geometry">
            <mxPoint x="700" y="235" as="sourcePoint" />
            <mxPoint x="750" y="243" as="targetPoint" />
          </mxGeometry>
        </mxCell>
        <mxCell id="KEBvnTViSRa0IrhKISGH-70" value="" style="endArrow=none;html=1;rounded=0;entryX=-0.005;entryY=0.786;entryDx=0;entryDy=0;entryPerimeter=0;exitX=1;exitY=0.5;exitDx=0;exitDy=0;" parent="1" source="KEBvnTViSRa0IrhKISGH-50" edge="1" target="KEBvnTViSRa0IrhKISGH-81">
          <mxGeometry width="50" height="50" relative="1" as="geometry">
            <mxPoint x="620" y="177" as="sourcePoint" />
            <mxPoint x="682.7999999999997" y="190.5999999999999" as="targetPoint" />
          </mxGeometry>
        </mxCell>
        <mxCell id="KEBvnTViSRa0IrhKISGH-71" value="" style="endArrow=none;html=1;rounded=0;entryX=0;entryY=1;entryDx=0;entryDy=0;" parent="1" source="KEBvnTViSRa0IrhKISGH-51" target="KEBvnTViSRa0IrhKISGH-81" edge="1">
          <mxGeometry width="50" height="50" relative="1" as="geometry">
            <mxPoint x="600" y="215.2" as="sourcePoint" />
            <mxPoint x="694.3199999999999" y="218.49999999999972" as="targetPoint" />
          </mxGeometry>
        </mxCell>
        <mxCell id="KEBvnTViSRa0IrhKISGH-72" value="" style="endArrow=none;html=1;rounded=0;entryX=0.691;entryY=1.01;entryDx=0;entryDy=0;entryPerimeter=0;exitX=0.367;exitY=0.021;exitDx=0;exitDy=0;exitPerimeter=0;" parent="1" source="KEBvnTViSRa0IrhKISGH-49" target="KEBvnTViSRa0IrhKISGH-81" edge="1">
          <mxGeometry width="50" height="50" relative="1" as="geometry">
            <mxPoint x="910" y="310" as="sourcePoint" />
            <mxPoint x="870" y="258" as="targetPoint" />
          </mxGeometry>
        </mxCell>
        <mxCell id="KEBvnTViSRa0IrhKISGH-73" value="" style="endArrow=none;html=1;rounded=0;entryX=1;entryY=1;entryDx=0;entryDy=0;exitX=0.077;exitY=0.238;exitDx=0;exitDy=0;exitPerimeter=0;" parent="1" source="KEBvnTViSRa0IrhKISGH-48" target="KEBvnTViSRa0IrhKISGH-81" edge="1">
          <mxGeometry width="50" height="50" relative="1" as="geometry">
            <mxPoint x="920" y="270" as="sourcePoint" />
            <mxPoint x="870.8400000000001" y="233.34000000000015" as="targetPoint" />
          </mxGeometry>
        </mxCell>
        <mxCell id="KEBvnTViSRa0IrhKISGH-74" value="" style="endArrow=none;html=1;rounded=0;entryX=1;entryY=0.25;entryDx=0;entryDy=0;exitX=0.323;exitY=0.974;exitDx=0;exitDy=0;exitPerimeter=0;" parent="1" source="KEBvnTViSRa0IrhKISGH-26" target="KEBvnTViSRa0IrhKISGH-3" edge="1">
          <mxGeometry width="50" height="50" relative="1" as="geometry">
            <mxPoint x="556" y="30" as="sourcePoint" />
            <mxPoint x="606" y="-20" as="targetPoint" />
          </mxGeometry>
        </mxCell>
        <mxCell id="KEBvnTViSRa0IrhKISGH-76" value="" style="endArrow=none;html=1;rounded=0;entryX=0.908;entryY=-0.031;entryDx=0;entryDy=0;exitX=0.071;exitY=0.783;exitDx=0;exitDy=0;exitPerimeter=0;entryPerimeter=0;" parent="1" source="KEBvnTViSRa0IrhKISGH-14" target="KEBvnTViSRa0IrhKISGH-3" edge="1">
          <mxGeometry width="50" height="50" relative="1" as="geometry">
            <mxPoint x="411" y="-93" as="sourcePoint" />
            <mxPoint x="356" y="-75" as="targetPoint" />
          </mxGeometry>
        </mxCell>
        <mxCell id="KEBvnTViSRa0IrhKISGH-77" value="" style="endArrow=none;html=1;rounded=0;entryX=0.75;entryY=0;entryDx=0;entryDy=0;exitX=0.5;exitY=1;exitDx=0;exitDy=0;" parent="1" source="KEBvnTViSRa0IrhKISGH-31" target="KEBvnTViSRa0IrhKISGH-3" edge="1">
          <mxGeometry width="50" height="50" relative="1" as="geometry">
            <mxPoint x="421" y="-83" as="sourcePoint" />
            <mxPoint x="366" y="-65" as="targetPoint" />
          </mxGeometry>
        </mxCell>
        <mxCell id="KEBvnTViSRa0IrhKISGH-78" value="" style="endArrow=none;html=1;rounded=0;entryX=0.25;entryY=0;entryDx=0;entryDy=0;exitX=0.714;exitY=0.941;exitDx=0;exitDy=0;exitPerimeter=0;" parent="1" source="KEBvnTViSRa0IrhKISGH-56" target="KEBvnTViSRa0IrhKISGH-3" edge="1">
          <mxGeometry width="50" height="50" relative="1" as="geometry">
            <mxPoint x="296" y="-180" as="sourcePoint" />
            <mxPoint x="296" y="-90" as="targetPoint" />
          </mxGeometry>
        </mxCell>
        <mxCell id="KEBvnTViSRa0IrhKISGH-79" value="" style="endArrow=none;html=1;rounded=0;entryX=-0.008;entryY=0.317;entryDx=0;entryDy=0;entryPerimeter=0;" parent="1" source="KEBvnTViSRa0IrhKISGH-25" target="KEBvnTViSRa0IrhKISGH-3" edge="1">
          <mxGeometry width="50" height="50" relative="1" as="geometry">
            <mxPoint x="306" y="-170" as="sourcePoint" />
            <mxPoint x="306" y="-80" as="targetPoint" />
          </mxGeometry>
        </mxCell>
        <mxCell id="KEBvnTViSRa0IrhKISGH-80" value="" style="endArrow=none;html=1;rounded=0;entryX=0;entryY=0;entryDx=0;entryDy=0;" parent="1" source="KEBvnTViSRa0IrhKISGH-55" target="KEBvnTViSRa0IrhKISGH-3" edge="1">
          <mxGeometry width="50" height="50" relative="1" as="geometry">
            <mxPoint x="316" y="-160" as="sourcePoint" />
            <mxPoint x="316" y="-70" as="targetPoint" />
          </mxGeometry>
        </mxCell>
        <mxCell id="KEBvnTViSRa0IrhKISGH-81" value="Round" style="shape=ext;margin=3;double=1;whiteSpace=wrap;html=1;align=center;fontSize=18;" parent="1" vertex="1">
          <mxGeometry x="750" y="198" width="120" height="60" as="geometry" />
        </mxCell>
        <mxCell id="KEBvnTViSRa0IrhKISGH-85" value="" style="endArrow=none;html=1;rounded=0;entryX=0;entryY=0.25;entryDx=0;entryDy=0;" parent="1" source="KEBvnTViSRa0IrhKISGH-41" target="KEBvnTViSRa0IrhKISGH-5" edge="1">
          <mxGeometry width="50" height="50" relative="1" as="geometry">
            <mxPoint x="780" y="-60" as="sourcePoint" />
            <mxPoint x="830" y="-110" as="targetPoint" />
          </mxGeometry>
        </mxCell>
        <mxCell id="KEBvnTViSRa0IrhKISGH-87" value="" style="endArrow=none;html=1;rounded=0;entryX=0.394;entryY=-0.003;entryDx=0;entryDy=0;entryPerimeter=0;exitX=0.5;exitY=1;exitDx=0;exitDy=0;" parent="1" source="KEBvnTViSRa0IrhKISGH-47" target="KEBvnTViSRa0IrhKISGH-5" edge="1">
          <mxGeometry width="50" height="50" relative="1" as="geometry">
            <mxPoint x="733" y="-103" as="sourcePoint" />
            <mxPoint x="760" y="-90" as="targetPoint" />
          </mxGeometry>
        </mxCell>
        <mxCell id="KEBvnTViSRa0IrhKISGH-88" value="" style="endArrow=none;html=1;rounded=0;exitX=0.353;exitY=0.991;exitDx=0;exitDy=0;entryX=0.5;entryY=0;entryDx=0;entryDy=0;exitPerimeter=0;" parent="1" source="KEBvnTViSRa0IrhKISGH-53" target="KEBvnTViSRa0IrhKISGH-5" edge="1">
          <mxGeometry width="50" height="50" relative="1" as="geometry">
            <mxPoint x="743" y="-93" as="sourcePoint" />
            <mxPoint x="830" y="-130.66666666666666" as="targetPoint" />
          </mxGeometry>
        </mxCell>
        <mxCell id="KEBvnTViSRa0IrhKISGH-89" value="" style="endArrow=none;html=1;rounded=0;entryX=0.996;entryY=0.561;entryDx=0;entryDy=0;entryPerimeter=0;exitX=0.035;exitY=0.668;exitDx=0;exitDy=0;exitPerimeter=0;" parent="1" source="KEBvnTViSRa0IrhKISGH-67" target="KEBvnTViSRa0IrhKISGH-5" edge="1">
          <mxGeometry width="50" height="50" relative="1" as="geometry">
            <mxPoint x="952.2353599333471" y="-111.83794923445657" as="sourcePoint" />
            <mxPoint x="869.72" y="-87.81999999999994" as="targetPoint" />
          </mxGeometry>
        </mxCell>
        <mxCell id="1a8eKbtsdFFPZXMQkyjr-1" value="(IC-1)" style="text;html=1;align=center;verticalAlign=middle;whiteSpace=wrap;rounded=0;" parent="1" vertex="1">
          <mxGeometry x="123" y="-169" width="60" height="30" as="geometry" />
        </mxCell>
        <mxCell id="1a8eKbtsdFFPZXMQkyjr-2" value="&lt;div&gt;Integrity Constraints:&lt;/div&gt;" style="text;html=1;align=center;verticalAlign=middle;resizable=0;points=[];autosize=1;strokeColor=none;fillColor=none;fontStyle=1" parent="1" vertex="1">
          <mxGeometry x="980" y="42" width="130" height="30" as="geometry" />
        </mxCell>
        <mxCell id="1a8eKbtsdFFPZXMQkyjr-6" value="plays &amp;gt;" style="text;html=1;align=center;verticalAlign=middle;whiteSpace=wrap;rounded=0;" parent="1" vertex="1">
          <mxGeometry x="520" y="-30" width="60" height="30" as="geometry" />
        </mxCell>
        <mxCell id="1a8eKbtsdFFPZXMQkyjr-7" value="contains &amp;gt;" style="text;html=1;align=center;verticalAlign=middle;whiteSpace=wrap;rounded=0;" parent="1" vertex="1">
          <mxGeometry x="859" y="55" width="60" height="30" as="geometry" />
        </mxCell>
        <mxCell id="1a8eKbtsdFFPZXMQkyjr-8" value="" style="strokeWidth=2;html=1;shape=mxgraph.flowchart.decision;whiteSpace=wrap;" parent="1" vertex="1">
          <mxGeometry x="780" y="40" width="60" height="60" as="geometry" />
        </mxCell>
        <mxCell id="1a8eKbtsdFFPZXMQkyjr-9" value="" style="rhombus;whiteSpace=wrap;html=1;" parent="1" vertex="1">
          <mxGeometry x="510" y="-110" width="80" height="80" as="geometry" />
        </mxCell>
        <mxCell id="1a8eKbtsdFFPZXMQkyjr-11" value="" style="triangle;whiteSpace=wrap;html=1;rotation=-90;" parent="1" vertex="1">
          <mxGeometry x="802.5" y="112.5" width="15" height="10" as="geometry" />
        </mxCell>
        <mxCell id="1a8eKbtsdFFPZXMQkyjr-17" value="&lt;div&gt;&lt;span style=&quot;background-color: initial;&quot;&gt;(IC-1) email is unique&lt;/span&gt;&lt;/div&gt;" style="text;html=1;align=center;verticalAlign=middle;resizable=0;points=[];autosize=1;strokeColor=none;fillColor=none;" parent="1" vertex="1">
          <mxGeometry x="974" y="72" width="140" height="30" as="geometry" />
        </mxCell>
        <mxCell id="4MLdNJm40MoZHTAZpqg6-1" value="" style="endArrow=none;dashed=1;html=1;rounded=0;startSize=4;endSize=0;jumpSize=4;exitX=0.92;exitY=0.723;exitDx=0;exitDy=0;exitPerimeter=0;" parent="1" edge="1" source="KEBvnTViSRa0IrhKISGH-50">
          <mxGeometry width="50" height="50" relative="1" as="geometry">
            <mxPoint x="682.75" y="270" as="sourcePoint" />
            <mxPoint x="625.25" y="270" as="targetPoint" />
          </mxGeometry>
        </mxCell>
        <mxCell id="TCj8vwOEYVdi2FSvWI34-1" value="name_roles" style="ellipse;whiteSpace=wrap;html=1;" parent="1" vertex="1">
          <mxGeometry x="800" y="-213.87" width="70" height="23.75" as="geometry" />
        </mxCell>
        <mxCell id="TCj8vwOEYVdi2FSvWI34-2" value="" style="endArrow=none;html=1;rounded=0;entryX=0.967;entryY=-0.013;entryDx=0;entryDy=0;exitX=0.45;exitY=0.984;exitDx=0;exitDy=0;entryPerimeter=0;exitPerimeter=0;" parent="1" source="TCj8vwOEYVdi2FSvWI34-1" edge="1">
          <mxGeometry width="50" height="50" relative="1" as="geometry">
            <mxPoint x="838.56" y="-108.81999999999991" as="sourcePoint" />
            <mxPoint x="827" y="-99.99999999999974" as="targetPoint" />
          </mxGeometry>
        </mxCell>
        <mxCell id="fMPy9mfBFGrcauoXWkiR-1" value="password" style="ellipse;whiteSpace=wrap;html=1;" parent="1" vertex="1">
          <mxGeometry x="930" y="-147.5" width="70" height="30.88" as="geometry" />
        </mxCell>
        <mxCell id="fMPy9mfBFGrcauoXWkiR-2" value="" style="endArrow=none;html=1;rounded=0;entryX=1;entryY=0.25;entryDx=0;entryDy=0;exitX=0.207;exitY=0.913;exitDx=0;exitDy=0;exitPerimeter=0;" parent="1" source="fMPy9mfBFGrcauoXWkiR-1" target="KEBvnTViSRa0IrhKISGH-5" edge="1">
          <mxGeometry width="50" height="50" relative="1" as="geometry">
            <mxPoint x="999" y="-135" as="sourcePoint" />
            <mxPoint x="919" y="-100" as="targetPoint" />
          </mxGeometry>
        </mxCell>
        <mxCell id="fMPy9mfBFGrcauoXWkiR-3" value="created_by" style="ellipse;whiteSpace=wrap;html=1;" parent="1" vertex="1">
          <mxGeometry x="635" y="-211" width="65" height="46.25" as="geometry" />
        </mxCell>
        <mxCell id="fMPy9mfBFGrcauoXWkiR-4" value="" style="endArrow=none;html=1;rounded=0;entryX=0.109;entryY=0;entryDx=0;entryDy=0;entryPerimeter=0;exitX=1;exitY=1;exitDx=0;exitDy=0;" parent="1" source="fMPy9mfBFGrcauoXWkiR-3" target="KEBvnTViSRa0IrhKISGH-5" edge="1">
          <mxGeometry width="50" height="50" relative="1" as="geometry">
            <mxPoint x="730" y="-136" as="sourcePoint" />
            <mxPoint x="735" y="-110" as="targetPoint" />
          </mxGeometry>
        </mxCell>
        <mxCell id="fMPy9mfBFGrcauoXWkiR-5" value="timestamp_submission_deadline" style="ellipse;whiteSpace=wrap;html=1;" parent="1" vertex="1">
          <mxGeometry x="940" y="-77.13" width="201" height="30" as="geometry" />
        </mxCell>
        <mxCell id="fMPy9mfBFGrcauoXWkiR-7" value="" style="endArrow=none;html=1;rounded=0;entryX=1;entryY=0.75;entryDx=0;entryDy=0;exitX=0;exitY=0.5;exitDx=0;exitDy=0;" parent="1" source="fMPy9mfBFGrcauoXWkiR-5" target="KEBvnTViSRa0IrhKISGH-5" edge="1">
          <mxGeometry width="50" height="50" relative="1" as="geometry">
            <mxPoint x="929.88" y="-59.129999999999995" as="sourcePoint" />
            <mxPoint x="870" y="-47.1299999999998" as="targetPoint" />
          </mxGeometry>
        </mxCell>
        <mxCell id="DbH7qJElpv-1IMqp84G7-1" value="group_id" style="ellipse;whiteSpace=wrap;html=1;" parent="1" vertex="1">
          <mxGeometry x="235" y="-220" width="55" height="36" as="geometry" />
        </mxCell>
        <mxCell id="DbH7qJElpv-1IMqp84G7-2" value="" style="endArrow=none;html=1;rounded=0;entryX=0.549;entryY=0.005;entryDx=0;entryDy=0;exitX=0.5;exitY=1;exitDx=0;exitDy=0;entryPerimeter=0;" parent="1" source="DbH7qJElpv-1IMqp84G7-1" target="KEBvnTViSRa0IrhKISGH-3" edge="1">
          <mxGeometry width="50" height="50" relative="1" as="geometry">
            <mxPoint x="421" y="-83" as="sourcePoint" />
            <mxPoint x="345" y="-92" as="targetPoint" />
          </mxGeometry>
        </mxCell>
        <mxCell id="oVsu0AF37vTBY9eFmllo-3" value="available" style="ellipse;whiteSpace=wrap;html=1;" parent="1" vertex="1">
          <mxGeometry x="621.25" y="-160.07" width="67.5" height="38.13" as="geometry" />
        </mxCell>
        <mxCell id="oVsu0AF37vTBY9eFmllo-5" value="" style="endArrow=none;html=1;rounded=0;entryX=0;entryY=0;entryDx=0;entryDy=0;exitX=1;exitY=1;exitDx=0;exitDy=0;" parent="1" source="oVsu0AF37vTBY9eFmllo-3" target="KEBvnTViSRa0IrhKISGH-5" edge="1">
          <mxGeometry width="50" height="50" relative="1" as="geometry">
            <mxPoint x="699" y="-127.13" as="sourcePoint" />
            <mxPoint x="750" y="-118.13" as="targetPoint" />
          </mxGeometry>
        </mxCell>
        <mxCell id="2ji4lTm6Wt5X4QjzoMIL-1" value="game_academic_year" style="ellipse;whiteSpace=wrap;html=1;" parent="1" vertex="1">
          <mxGeometry x="874" y="-243.75" width="136" height="33.75" as="geometry" />
        </mxCell>
        <mxCell id="2ji4lTm6Wt5X4QjzoMIL-2" value="" style="endArrow=none;html=1;rounded=0;entryX=0.75;entryY=0;entryDx=0;entryDy=0;exitX=0.229;exitY=0.935;exitDx=0;exitDy=0;exitPerimeter=0;" parent="1" source="2ji4lTm6Wt5X4QjzoMIL-1" target="KEBvnTViSRa0IrhKISGH-5" edge="1">
          <mxGeometry width="50" height="50" relative="1" as="geometry">
            <mxPoint x="892.56" y="-133.8299999999999" as="sourcePoint" />
            <mxPoint x="881" y="-125.00999999999974" as="targetPoint" />
          </mxGeometry>
        </mxCell>
        <mxCell id="2ji4lTm6Wt5X4QjzoMIL-3" value="game_class" style="ellipse;whiteSpace=wrap;html=1;" parent="1" vertex="1">
          <mxGeometry x="904" y="-193.75" width="76" height="33.75" as="geometry" />
        </mxCell>
        <mxCell id="2ji4lTm6Wt5X4QjzoMIL-4" value="" style="endArrow=none;html=1;rounded=0;entryX=0.893;entryY=-0.005;entryDx=0;entryDy=0;exitX=0.45;exitY=0.984;exitDx=0;exitDy=0;entryPerimeter=0;exitPerimeter=0;" parent="1" source="2ji4lTm6Wt5X4QjzoMIL-3" target="KEBvnTViSRa0IrhKISGH-5" edge="1">
          <mxGeometry width="50" height="50" relative="1" as="geometry">
            <mxPoint x="902.56" y="-123.8299999999999" as="sourcePoint" />
            <mxPoint x="891" y="-115.00999999999974" as="targetPoint" />
          </mxGeometry>
        </mxCell>
        <mxCell id="Dou8nJwr5qpGfL5kFJxq-1" value="game_id" style="ellipse;whiteSpace=wrap;html=1;" vertex="1" parent="1">
          <mxGeometry x="629.75" y="177" width="60" height="30" as="geometry" />
        </mxCell>
        <mxCell id="Dou8nJwr5qpGfL5kFJxq-2" value="" style="endArrow=none;html=1;rounded=0;entryX=0;entryY=0.25;entryDx=0;entryDy=0;exitX=0.996;exitY=0.531;exitDx=0;exitDy=0;exitPerimeter=0;" edge="1" parent="1" source="Dou8nJwr5qpGfL5kFJxq-1" target="KEBvnTViSRa0IrhKISGH-81">
          <mxGeometry width="50" height="50" relative="1" as="geometry">
            <mxPoint x="700" y="210" as="sourcePoint" />
            <mxPoint x="725" y="181" as="targetPoint" />
          </mxGeometry>
        </mxCell>
        <mxCell id="Dou8nJwr5qpGfL5kFJxq-9" value="group2_class" style="ellipse;whiteSpace=wrap;html=1;" vertex="1" parent="1">
          <mxGeometry x="698" y="315.4" width="78" height="34.6" as="geometry" />
        </mxCell>
        <mxCell id="Dou8nJwr5qpGfL5kFJxq-10" value="group2_id" style="ellipse;whiteSpace=wrap;html=1;" vertex="1" parent="1">
          <mxGeometry x="775" y="296" width="70" height="34" as="geometry" />
        </mxCell>
        <mxCell id="Dou8nJwr5qpGfL5kFJxq-11" value="" style="endArrow=none;dashed=1;html=1;rounded=0;startSize=4;endSize=0;jumpSize=4;" edge="1" parent="1">
          <mxGeometry width="50" height="50" relative="1" as="geometry">
            <mxPoint x="836.5" y="321.4" as="sourcePoint" />
            <mxPoint x="779" y="321.4" as="targetPoint" />
          </mxGeometry>
        </mxCell>
        <mxCell id="Dou8nJwr5qpGfL5kFJxq-12" value="" style="endArrow=none;html=1;rounded=0;entryX=0.192;entryY=1.005;entryDx=0;entryDy=0;entryPerimeter=0;exitX=0.626;exitY=0.018;exitDx=0;exitDy=0;exitPerimeter=0;" edge="1" parent="1" source="Dou8nJwr5qpGfL5kFJxq-9" target="KEBvnTViSRa0IrhKISGH-81">
          <mxGeometry width="50" height="50" relative="1" as="geometry">
            <mxPoint x="744.1200000000001" y="309.88000000000034" as="sourcePoint" />
            <mxPoint x="775.7999999999997" y="256.9999999999999" as="targetPoint" />
          </mxGeometry>
        </mxCell>
        <mxCell id="Dou8nJwr5qpGfL5kFJxq-13" value="" style="endArrow=none;html=1;rounded=0;entryX=0.344;entryY=0.994;entryDx=0;entryDy=0;entryPerimeter=0;" edge="1" parent="1" source="Dou8nJwr5qpGfL5kFJxq-10" target="KEBvnTViSRa0IrhKISGH-81">
          <mxGeometry width="50" height="50" relative="1" as="geometry">
            <mxPoint x="720" y="254.4" as="sourcePoint" />
            <mxPoint x="814" y="257.4" as="targetPoint" />
          </mxGeometry>
        </mxCell>
        <mxCell id="Dou8nJwr5qpGfL5kFJxq-14" value="" style="endArrow=none;dashed=1;html=1;rounded=0;startSize=4;endSize=0;jumpSize=4;exitX=0.943;exitY=0.671;exitDx=0;exitDy=0;exitPerimeter=0;" edge="1" parent="1">
          <mxGeometry width="50" height="50" relative="1" as="geometry">
            <mxPoint x="770.5539999999999" y="340.29200000000014" as="sourcePoint" />
            <mxPoint x="701" y="340" as="targetPoint" />
          </mxGeometry>
        </mxCell>
        <mxCell id="Dou8nJwr5qpGfL5kFJxq-16" value="score_team1_role2" style="ellipse;whiteSpace=wrap;html=1;" vertex="1" parent="1">
          <mxGeometry x="939" y="260" width="110" height="28" as="geometry" />
        </mxCell>
        <mxCell id="Dou8nJwr5qpGfL5kFJxq-17" value="" style="endArrow=none;html=1;rounded=0;entryX=1;entryY=0.667;entryDx=0;entryDy=0;entryPerimeter=0;exitX=0;exitY=0.5;exitDx=0;exitDy=0;" edge="1" parent="1" source="Dou8nJwr5qpGfL5kFJxq-16" target="KEBvnTViSRa0IrhKISGH-81">
          <mxGeometry width="50" height="50" relative="1" as="geometry">
            <mxPoint x="1101" y="320" as="sourcePoint" />
            <mxPoint x="1040" y="268" as="targetPoint" />
          </mxGeometry>
        </mxCell>
        <mxCell id="Dou8nJwr5qpGfL5kFJxq-18" value="score_team2_role1" style="ellipse;whiteSpace=wrap;html=1;" vertex="1" parent="1">
          <mxGeometry x="974" y="218.5" width="114.5" height="32" as="geometry" />
        </mxCell>
        <mxCell id="Dou8nJwr5qpGfL5kFJxq-19" value="" style="endArrow=none;html=1;rounded=0;entryX=1;entryY=0.25;entryDx=0;entryDy=0;exitX=0;exitY=0.5;exitDx=0;exitDy=0;" edge="1" parent="1" source="Dou8nJwr5qpGfL5kFJxq-18" target="KEBvnTViSRa0IrhKISGH-81">
          <mxGeometry width="50" height="50" relative="1" as="geometry">
            <mxPoint x="1121" y="218" as="sourcePoint" />
            <mxPoint x="1060" y="166" as="targetPoint" />
          </mxGeometry>
        </mxCell>
        <mxCell id="Dou8nJwr5qpGfL5kFJxq-20" value="" style="endArrow=none;dashed=1;html=1;rounded=0;" edge="1" parent="1">
          <mxGeometry width="50" height="50" relative="1" as="geometry">
            <mxPoint x="683" y="200" as="sourcePoint" />
            <mxPoint x="638" y="200" as="targetPoint" />
          </mxGeometry>
        </mxCell>
        <mxCell id="Dou8nJwr5qpGfL5kFJxq-23" value="(IC-2) The name_roles follows the format: role1#_;:)role2" style="text;html=1;align=center;verticalAlign=middle;whiteSpace=wrap;rounded=0;" vertex="1" parent="1">
          <mxGeometry x="973" y="92.5" width="332" height="30" as="geometry" />
        </mxCell>
        <mxCell id="Dou8nJwr5qpGfL5kFJxq-24" value="(IC-2)" style="text;html=1;align=center;verticalAlign=middle;whiteSpace=wrap;rounded=0;" vertex="1" parent="1">
          <mxGeometry x="826" y="-237" width="60" height="30" as="geometry" />
        </mxCell>
        <mxCell id="Dou8nJwr5qpGfL5kFJxq-25" value="" style="endArrow=none;dashed=1;html=1;rounded=0;startSize=4;endSize=0;jumpSize=4;exitX=0.92;exitY=0.723;exitDx=0;exitDy=0;exitPerimeter=0;" edge="1" parent="1">
          <mxGeometry width="50" height="50" relative="1" as="geometry">
            <mxPoint x="691.75" y="234.27" as="sourcePoint" />
            <mxPoint x="623" y="234.27" as="targetPoint" />
          </mxGeometry>
        </mxCell>
      </root>
    </mxGraphModel>
  </diagram>
</mxfile>
